<svg width="216" height="24" viewBox="0 0 216 24" fill="none" xmlns="http://www.w3.org/2000/svg">
<path d="M16.988 1.15865V4.64904H15.0605C14.3567 4.64904 13.882 4.80769 13.6364 5.125C13.3909 5.44231 13.2681 5.91827 13.2681 6.55288V9.05168H16.8652L16.3864 12.9651H13.2681V23H9.51144V12.9651H6.38086V9.05168H9.51144V6.16947C9.51144 4.53005 9.93703 3.25861 10.7882 2.35517C11.6394 1.45172 12.773 1 14.1889 1C15.392 1 16.3251 1.05288 16.988 1.15865Z" fill="#DBDBDB"/>
<path fill-rule="evenodd" clip-rule="evenodd" d="M55.465 1.066C56.638 1.012 57.012 1 60 1C62.988 1 63.362 1.013 64.534 1.066C65.706 1.119 66.506 1.306 67.206 1.577C67.939 1.854 68.604 2.287 69.154 2.847C69.714 3.396 70.146 4.06 70.422 4.794C70.694 5.494 70.88 6.294 70.934 7.464C70.988 8.639 71 9.013 71 12C71 14.988 70.987 15.362 70.934 16.535C70.881 17.705 70.694 18.505 70.422 19.205C70.146 19.9391 69.7133 20.6042 69.154 21.154C68.604 21.714 67.939 22.146 67.206 22.422C66.506 22.694 65.706 22.88 64.536 22.934C63.362 22.988 62.988 23 60 23C57.012 23 56.638 22.987 55.465 22.934C54.295 22.881 53.495 22.694 52.795 22.422C52.0609 22.146 51.3958 21.7133 50.846 21.154C50.2864 20.6047 49.8533 19.9399 49.577 19.206C49.306 18.506 49.12 17.706 49.066 16.536C49.012 15.361 49 14.987 49 12C49 9.012 49.013 8.638 49.066 7.466C49.119 6.294 49.306 5.494 49.577 4.794C49.8537 4.06008 50.2871 3.39531 50.847 2.846C51.396 2.2865 52.0605 1.85344 52.794 1.577C53.494 1.306 54.294 1.12 55.464 1.066H55.465ZM64.445 3.046C63.285 2.993 62.937 2.982 60 2.982C57.063 2.982 56.715 2.993 55.555 3.046C54.482 3.095 53.9 3.274 53.512 3.425C52.999 3.625 52.632 3.862 52.247 4.247C51.882 4.60205 51.6012 5.03428 51.425 5.512C51.274 5.9 51.095 6.482 51.046 7.555C50.993 8.715 50.982 9.063 50.982 12C50.982 14.937 50.993 15.285 51.046 16.445C51.095 17.518 51.274 18.1 51.425 18.488C51.601 18.965 51.882 19.398 52.247 19.753C52.602 20.118 53.035 20.399 53.512 20.575C53.9 20.726 54.482 20.905 55.555 20.954C56.715 21.007 57.062 21.018 60 21.018C62.938 21.018 63.285 21.007 64.445 20.954C65.518 20.905 66.1 20.726 66.488 20.575C67.001 20.375 67.368 20.138 67.753 19.753C68.118 19.398 68.399 18.965 68.575 18.488C68.726 18.1 68.905 17.518 68.954 16.445C69.007 15.285 69.018 14.937 69.018 12C69.018 9.063 69.007 8.715 68.954 7.555C68.905 6.482 68.726 5.9 68.575 5.512C68.375 4.999 68.138 4.632 67.753 4.247C67.3979 3.88207 66.9657 3.60121 66.488 3.425C66.1 3.274 65.518 3.095 64.445 3.046ZM58.595 15.391C59.3797 15.7176 60.2534 15.7617 61.0669 15.5157C61.8805 15.2697 62.5834 14.7489 63.0556 14.0422C63.5278 13.3356 63.7401 12.4869 63.656 11.6411C63.572 10.7953 63.197 10.005 62.595 9.405C62.2112 9.02148 61.7472 8.72781 61.2363 8.54515C60.7255 8.36248 60.1804 8.29536 59.6405 8.34862C59.1006 8.40187 58.5792 8.57418 58.1138 8.85313C57.6485 9.13208 57.2507 9.51074 56.9493 9.96185C56.6479 10.413 56.4502 10.9253 56.3705 11.462C56.2908 11.9986 56.3312 12.5463 56.4885 13.0655C56.6459 13.5847 56.9165 14.0626 57.2807 14.4647C57.645 14.8668 58.0938 15.1832 58.595 15.391ZM56.002 8.002C56.527 7.47697 57.1503 7.0605 57.8363 6.77636C58.5223 6.49222 59.2575 6.34597 60 6.34597C60.7425 6.34597 61.4777 6.49222 62.1637 6.77636C62.8497 7.0605 63.473 7.47697 63.998 8.002C64.523 8.52702 64.9395 9.15032 65.2236 9.8363C65.5078 10.5223 65.654 11.2575 65.654 12C65.654 12.7425 65.5078 13.4777 65.2236 14.1637C64.9395 14.8497 64.523 15.473 63.998 15.998C62.9377 17.0583 61.4995 17.654 60 17.654C58.5005 17.654 57.0623 17.0583 56.002 15.998C54.9417 14.9377 54.346 13.4995 54.346 12C54.346 10.5005 54.9417 9.06234 56.002 8.002ZM66.908 7.188C67.0381 7.06527 67.1423 6.91768 67.2143 6.75397C67.2863 6.59027 67.3248 6.41377 67.3274 6.23493C67.33 6.05609 67.2967 5.87855 67.2295 5.71281C67.1622 5.54707 67.0624 5.39651 66.936 5.27004C66.8095 5.14357 66.6589 5.04376 66.4932 4.97652C66.3275 4.90928 66.1499 4.87598 65.9711 4.87858C65.7922 4.88119 65.6157 4.91965 65.452 4.9917C65.2883 5.06374 65.1407 5.1679 65.018 5.298C64.7793 5.55103 64.6486 5.88712 64.6537 6.23493C64.6588 6.58274 64.7992 6.91488 65.0452 7.16084C65.2911 7.40681 65.6233 7.54723 65.9711 7.5523C66.3189 7.55737 66.655 7.42669 66.908 7.188Z" fill="#DBDBDB"/>
<path d="M119.643 4.93708C118.808 5.30708 117.911 5.55708 116.968 5.67008C117.941 5.08787 118.668 4.17154 119.016 3.09208C118.101 3.63507 117.101 4.01727 116.058 4.22208C115.356 3.47294 114.427 2.9764 113.414 2.80955C112.401 2.6427 111.362 2.81487 110.457 3.29933C109.552 3.78379 108.832 4.55344 108.41 5.48878C107.987 6.42412 107.885 7.47283 108.12 8.47208C106.267 8.37907 104.455 7.89763 102.801 7.05898C101.147 6.22034 99.6874 5.04324 98.5175 3.60408C98.1175 4.29408 97.8875 5.09408 97.8875 5.94608C97.8871 6.71307 98.076 7.46832 98.4374 8.14481C98.7988 8.8213 99.3217 9.39812 99.9595 9.82408C99.2198 9.80054 98.4964 9.60066 97.8495 9.24108V9.30108C97.8494 10.3768 98.2216 11.4195 98.9027 12.2521C99.5839 13.0847 100.532 13.656 101.587 13.8691C100.9 14.0548 100.181 14.0821 99.4825 13.9491C99.78 14.8747 100.36 15.6841 101.14 16.264C101.92 16.8439 102.862 17.1653 103.835 17.1831C102.184 18.4785 100.146 19.1812 98.0485 19.1781C97.6769 19.1782 97.3056 19.1565 96.9365 19.1131C99.066 20.4823 101.545 21.2089 104.077 21.2061C112.647 21.2061 117.332 14.1081 117.332 7.95208C117.332 7.75208 117.327 7.55008 117.318 7.35008C118.229 6.69105 119.015 5.87497 119.641 4.94008L119.643 4.93708Z" fill="#DBDBDB"/>
<path d="M148.372 7.264C148.384 7.14227 148.368 7.01935 148.324 6.9051C148.28 6.79084 148.21 6.68841 148.12 6.606L146.252 4.339V4H152.05L156.532 13.905L160.472 4H166V4.339L164.403 5.88C164.335 5.93225 164.283 6.00189 164.252 6.0815C164.221 6.16111 164.212 6.24769 164.226 6.332V17.666C164.212 17.7503 164.221 17.8369 164.252 17.9165C164.283 17.9961 164.335 18.0658 164.403 18.118L165.963 19.66V20H158.119V19.661L159.735 18.081C159.894 17.921 159.894 17.874 159.894 17.63V8.468L155.402 19.962H154.796L149.566 8.468V16.172C149.523 16.495 149.63 16.822 149.856 17.056L151.957 19.624V19.962H146V19.624L148.1 17.056C148.211 16.9401 148.294 16.7997 148.341 16.6462C148.388 16.4928 148.399 16.3304 148.372 16.172V7.264Z" fill="#DBDBDB"/>
<path fill-rule="evenodd" clip-rule="evenodd" d="M201.429 8.969H205.143V10.819C205.678 9.755 207.05 8.799 209.111 8.799C213.062 8.799 214 10.917 214 14.803V22H210V15.688C210 13.475 209.465 12.227 208.103 12.227C206.214 12.227 205.429 13.572 205.429 15.687V22H201.429V8.969ZM194.57 21.83H198.57V8.799H194.57V21.83ZM199.143 4.55C199.143 4.88528 199.077 5.21724 198.947 5.52659C198.818 5.83594 198.629 6.11651 198.39 6.352C197.906 6.83262 197.252 7.10165 196.57 7.1C195.889 7.09954 195.236 6.8312 194.752 6.353C194.514 6.11671 194.325 5.83582 194.196 5.52643C194.067 5.21704 194.001 4.88522 194 4.55C194 3.873 194.27 3.225 194.753 2.747C195.237 2.26816 195.89 1.9997 196.571 2C197.253 2 197.907 2.269 198.39 2.747C198.872 3.225 199.143 3.873 199.143 4.55Z" fill="#DBDBDB"/>
</svg>
