<svg width="409" height="39" viewBox="0 0 409 39" fill="none" xmlns="http://www.w3.org/2000/svg">
<path fill-rule="evenodd" clip-rule="evenodd" d="M132.673 38V28.536H142.921C151.825 28.536 157.425 23.384 157.425 14.48C157.425 5.57598 151.825 0.47998 142.921 0.47998L122.145 0.47998V38H132.673ZM141.745 9.94398C145.441 9.94398 146.953 10.672 146.953 14.48C146.953 18.344 145.441 19.072 141.745 19.072H132.673V9.94398L141.745 9.94398ZM170.188 38V21.144C170.188 18.904 171.028 18.064 173.884 18.064C176.628 18.064 177.524 18.904 177.524 21.256V24.56H188.052V18.96C188.052 13.304 185.588 9.21598 179.372 9.21598C173.772 9.21598 170.86 12.52 170.076 17.168H169.516V9.77598L159.66 9.77598V38H170.188ZM206.021 38.56C215.541 38.56 221.533 34.136 221.533 27.864V27.192L211.005 27.192V27.808C211.005 29.488 209.885 30.216 205.629 30.216C201.149 30.216 199.637 29.264 199.469 25.848L221.589 25.848C221.701 24.84 221.757 24.112 221.757 23.16C221.757 14.088 215.541 9.21598 205.797 9.21598C196.389 9.21598 189.725 14.704 189.725 23.888C189.725 34.472 196.445 38.56 206.021 38.56ZM205.573 17.28C209.493 17.28 211.173 18.12 211.565 20.528H199.637C200.085 18.12 201.709 17.28 205.573 17.28ZM239.751 38.56C249.103 38.56 254.367 34.752 254.367 29.488C254.367 24.728 251.735 21.984 243.503 21.088L237.903 20.472C234.599 20.136 234.151 19.744 234.151 18.96C234.151 17.896 234.599 17.448 238.015 17.448C242.271 17.448 242.831 18.12 242.831 19.576V19.912L253.359 19.912V19.688C253.359 12.744 248.151 9.21598 238.351 9.21598C227.767 9.21598 223.791 13.528 223.791 18.512C223.791 23.272 226.927 26.016 232.751 26.632L240.927 27.528C243.559 27.808 244.007 28.032 244.007 28.928C244.007 29.88 243.447 30.272 239.807 30.272C235.999 30.272 234.991 30.104 234.991 28.536V27.976H224.463V28.2C224.463 34.696 229.783 38.56 239.751 38.56ZM272.071 38.56C281.423 38.56 286.687 34.752 286.687 29.488C286.687 24.728 284.055 21.984 275.823 21.088L270.223 20.472C266.919 20.136 266.471 19.744 266.471 18.96C266.471 17.896 266.919 17.448 270.335 17.448C274.591 17.448 275.151 18.12 275.151 19.576V19.912L285.679 19.912V19.688C285.679 12.744 280.471 9.21598 270.671 9.21598C260.087 9.21598 256.111 13.528 256.111 18.512C256.111 23.272 259.247 26.016 265.071 26.632L273.247 27.528C275.879 27.808 276.327 28.032 276.327 28.928C276.327 29.88 275.767 30.272 272.127 30.272C268.319 30.272 267.311 30.104 267.311 28.536V27.976H256.783V28.2C256.783 34.696 262.103 38.56 272.071 38.56ZM0 20.52C0 20.335 0.148326 20.1842 0.333287 20.1811L98.0003 18.5533C99.0993 18.535 100 19.4209 100 20.52C100 21.6191 99.0993 22.505 98.0003 22.4867L0.333291 20.8589C0.14833 20.8558 0 20.705 0 20.52ZM407.68 23.9061C407.865 23.9056 408.016 23.7569 408.018 23.5719C408.021 23.387 407.875 23.2341 407.69 23.2284L310.055 20.2311C308.957 20.1973 308.044 21.0705 308.028 22.1695C308.013 23.2685 308.901 24.1669 310 24.164L407.68 23.9061Z" fill="url(#paint0_linear_2_464)"/>
<defs>
<linearGradient id="paint0_linear_2_464" x1="0" y1="38.56" x2="408.018" y2="38.56" gradientUnits="userSpaceOnUse">
<stop stop-color="#A734BD"/>
<stop offset="1" stop-color="#FF006A"/>
</linearGradient>
</defs>
</svg>
