<svg width="404" height="342" viewBox="0 0 404 342" fill="none" xmlns="http://www.w3.org/2000/svg">
<mask id="path-1-outside-1_2_737" maskUnits="userSpaceOnUse" x="96.9869" y="89.4964" width="295.944" height="251.052" fill="black">
<rect fill="white" x="96.9869" y="89.4964" width="295.944" height="251.052"/>
<path fill-rule="evenodd" clip-rule="evenodd" d="M350.688 135.258C365.42 137.382 375.64 151.047 373.516 165.779L359.703 261.564C357.795 274.795 346.577 284.387 333.639 284.665L329.533 313.131C328.441 320.699 318.856 323.333 314.051 317.385L281.878 277.57L144.459 257.752C129.727 255.628 119.506 241.963 121.631 227.231L135.444 131.446C137.569 116.714 151.234 106.494 165.966 108.618L350.688 135.258Z"/>
</mask>
<path fill-rule="evenodd" clip-rule="evenodd" d="M350.688 135.258C365.42 137.382 375.64 151.047 373.516 165.779L359.703 261.564C357.795 274.795 346.577 284.387 333.639 284.665L329.533 313.131C328.441 320.699 318.856 323.333 314.051 317.385L281.878 277.57L144.459 257.752C129.727 255.628 119.506 241.963 121.631 227.231L135.444 131.446C137.569 116.714 151.234 106.494 165.966 108.618L350.688 135.258Z" fill="white"/>
<path d="M373.516 165.779L360.845 163.952L373.516 165.779ZM350.688 135.258L348.861 147.928L350.688 135.258ZM359.703 261.564L372.373 263.391L359.703 261.564ZM333.639 284.665L333.364 271.866L322.517 272.099L320.968 282.837L333.639 284.665ZM329.533 313.131L342.203 314.958L329.533 313.131ZM314.051 317.385L324.008 309.34L314.051 317.385ZM281.878 277.57L291.835 269.524L288.677 265.616L283.705 264.899L281.878 277.57ZM144.459 257.752L142.632 270.423L144.459 257.752ZM121.631 227.231L108.96 225.403L121.631 227.231ZM135.444 131.446L148.115 133.274L135.444 131.446ZM165.966 108.618L167.793 95.9479L165.966 108.618ZM386.186 167.606C389.32 145.877 374.245 125.721 352.515 122.587L348.861 147.928C356.595 149.043 361.961 156.218 360.845 163.952L386.186 167.606ZM372.373 263.391L386.186 167.606L360.845 163.952L347.032 259.736L372.373 263.391ZM333.913 297.463C353.008 297.054 369.557 282.92 372.373 263.391L347.032 259.736C346.032 266.67 340.147 271.721 333.364 271.866L333.913 297.463ZM342.203 314.958L346.309 286.492L320.968 282.837L316.862 311.303L342.203 314.958ZM304.094 325.431C315.923 340.071 339.516 333.587 342.203 314.958L316.862 311.303C317.366 307.81 321.79 306.595 324.008 309.34L304.094 325.431ZM271.921 285.616L304.094 325.431L324.008 309.34L291.835 269.524L271.921 285.616ZM142.632 270.423L280.051 290.24L283.705 264.899L146.286 245.082L142.632 270.423ZM108.96 225.403C105.827 247.133 120.902 267.289 142.632 270.423L146.286 245.082C138.552 243.966 133.186 236.792 134.301 229.058L108.96 225.403ZM122.774 129.619L108.96 225.403L134.301 229.058L148.115 133.274L122.774 129.619ZM167.793 95.9479C146.063 92.8143 125.907 107.889 122.774 129.619L148.115 133.274C149.23 125.539 156.404 120.174 164.138 121.289L167.793 95.9479ZM352.515 122.587L167.793 95.9479L164.138 121.289L348.861 147.928L352.515 122.587Z" fill="black" mask="url(#path-1-outside-1_2_737)"/>
<mask id="path-3-outside-2_2_737" maskUnits="userSpaceOnUse" x="-11.4992" y="4.61575" width="358.079" height="305.564" fill="black">
<rect fill="white" x="-11.4992" y="4.61575" width="358.079" height="305.564"/>
<path fill-rule="evenodd" clip-rule="evenodd" d="M64.4306 24.3175C49.6985 22.193 36.0336 32.4134 33.909 47.1454L15.1558 177.185C13.0313 191.917 23.2517 205.582 37.9837 207.706L38.698 207.809L33.0567 246.932C31.9655 254.5 40.4156 259.735 46.7058 255.388L102.283 216.979L277.389 242.231C292.121 244.356 305.786 234.135 307.911 219.403L326.664 89.3642C328.788 74.6322 318.568 60.9672 303.836 58.8427L64.4306 24.3175Z"/>
</mask>
<path fill-rule="evenodd" clip-rule="evenodd" d="M64.4306 24.3175C49.6985 22.193 36.0336 32.4134 33.909 47.1454L15.1558 177.185C13.0313 191.917 23.2517 205.582 37.9837 207.706L38.698 207.809L33.0567 246.932C31.9655 254.5 40.4156 259.735 46.7058 255.388L102.283 216.979L277.389 242.231C292.121 244.356 305.786 234.135 307.911 219.403L326.664 89.3642C328.788 74.6322 318.568 60.9672 303.836 58.8427L64.4306 24.3175Z" fill="url(#paint0_linear_2_737)"/>
<path d="M33.909 47.1454L47.2315 49.0667L33.909 47.1454ZM15.1558 177.185L1.83341 175.263L15.1558 177.185ZM38.698 207.809L52.0204 209.73L53.9414 196.408L40.6192 194.487L38.698 207.809ZM33.0567 246.932L19.7343 245.011L33.0567 246.932ZM46.7058 255.388L39.0532 244.314L39.0532 244.314L46.7058 255.388ZM102.283 216.979L104.204 203.656L98.976 202.902L94.6304 205.906L102.283 216.979ZM307.911 219.403L294.588 217.482L307.911 219.403ZM326.664 89.3642L339.986 91.2854L326.664 89.3642ZM47.2315 49.0667C48.2949 41.6924 55.1351 36.5765 62.5093 37.6399L66.3518 10.9951C44.262 7.80948 23.7722 23.1344 20.5866 45.2242L47.2315 49.0667ZM28.4783 179.106L47.2315 49.0667L20.5866 45.2242L1.83341 175.263L28.4783 179.106ZM39.905 194.384C32.5307 193.32 27.4148 186.48 28.4783 179.106L1.83341 175.263C-1.35221 197.353 13.9727 217.843 36.0625 221.029L39.905 194.384ZM40.6192 194.487L39.905 194.384L36.0625 221.029L36.7767 221.132L40.6192 194.487ZM46.3792 248.853L52.0204 209.73L25.3755 205.888L19.7343 245.011L46.3792 248.853ZM39.0532 244.314C42.4294 241.981 46.9649 244.791 46.3792 248.853L19.7343 245.011C16.9661 264.209 38.4018 277.488 54.3583 266.461L39.0532 244.314ZM94.6304 205.906L39.0532 244.314L54.3583 266.461L109.936 228.052L94.6304 205.906ZM279.31 228.909L104.204 203.656L100.362 230.301L275.468 255.554L279.31 228.909ZM294.588 217.482C293.525 224.856 286.685 229.972 279.31 228.909L275.468 255.554C297.558 258.739 318.048 243.414 321.233 221.325L294.588 217.482ZM313.342 87.4429L294.588 217.482L321.233 221.325L339.986 91.2854L313.342 87.4429ZM301.915 72.1651C309.289 73.2285 314.405 80.0687 313.342 87.4429L339.986 91.2854C343.172 69.1956 327.847 48.7059 305.757 45.5202L301.915 72.1651ZM62.5093 37.6399L301.915 72.1651L305.757 45.5202L66.3518 10.9951L62.5093 37.6399Z" fill="black" mask="url(#path-3-outside-2_2_737)"/>
<path d="M86.6154 147.916L89.3723 128.283L121.863 133.095L123.851 118.939L91.3602 114.128L92.5434 105.701L126.265 110.696L128.265 96.4557L79.118 89.1771L71.1903 145.631L86.6154 147.916Z" fill="black"/>
<path d="M138.424 155.589L144.157 145.772L170.249 149.636L172.966 160.704L190.688 163.329L174.822 103.351L152.751 100.082L121.111 153.025L138.424 155.589ZM156.295 124.948L161.16 115.95L162.226 116.108L164.499 126.164L166.587 134.558L151.982 132.395L156.295 124.948Z" fill="black"/>
<path d="M245.807 183.62L235.698 168.533C247.436 166.057 254.857 157.35 256.691 144.29C259.164 126.679 249.614 113.567 230.005 110.663C210.888 107.832 197.956 117.615 195.483 135.225C193.176 151.656 201.459 164.236 218.172 168.088L225.542 180.619L245.807 183.62ZM223.97 153.636C212.812 151.983 210.319 148.862 211.892 137.655C213.466 126.449 216.716 124.178 227.875 125.83C239.034 127.483 241.855 130.653 240.281 141.86C238.707 153.066 235.129 155.289 223.97 153.636Z" fill="black"/>
<defs>
<linearGradient id="paint0_linear_2_737" x1="4.4144" y1="251.668" x2="297.169" y2="293.887" gradientUnits="userSpaceOnUse">
<stop stop-color="#A734BD"/>
<stop offset="1" stop-color="#FF006A"/>
</linearGradient>
</defs>
</svg>
