<svg width="80" height="80" viewBox="0 0 80 80" fill="none" xmlns="http://www.w3.org/2000/svg">
<rect width="80" height="80" rx="20" fill="white" fill-opacity="0.1"/>
<path d="M40 20C51.046 20 60 28.954 60 40C60 51.046 51.046 60 40 60C28.954 60 20 51.046 20 40C20 28.954 28.954 20 40 20ZM40 22.79C35.4356 22.79 31.0582 24.6032 27.8307 27.8307C24.6032 31.0582 22.79 35.4356 22.79 40C22.79 44.5644 24.6032 48.9418 27.8307 52.1693C31.0582 55.3968 35.4356 57.21 40 57.21C44.5644 57.21 48.9418 55.3968 52.1693 52.1693C55.3968 48.9418 57.21 44.5644 57.21 40C57.21 35.4356 55.3968 31.0582 52.1693 27.8307C48.9418 24.6032 44.5644 22.79 40 22.79ZM44.096 26.976C45.3963 27.4677 46.6121 28.1586 47.7 29.024C47.95 29.216 48.19 29.42 48.426 29.638C48.47 29.676 48.508 29.716 48.55 29.758C49.206 30.364 49.802 31.046 50.33 31.778C50.404 31.88 50.482 31.974 50.55 32.072C50.678 32.26 50.798 32.456 50.918 32.652C51.1244 32.9826 51.3146 33.323 51.488 33.672C51.594 33.872 51.688 34.09 51.786 34.302C51.852 34.448 51.926 34.598 51.986 34.754C52.132 35.118 52.262 35.484 52.38 35.858C52.418 35.982 52.448 36.114 52.484 36.238C52.6869 36.9496 52.8307 37.6767 52.914 38.412C52.928 38.544 52.948 38.684 52.958 38.814C52.998 39.244 53.024 39.678 53.024 40.114C53.0214 40.9659 52.9431 41.8159 52.79 42.654C52.762 42.8 52.738 42.948 52.71 43.088C52.63 43.468 52.538 43.84 52.43 44.208C51.412 43.742 50.216 43.056 49.904 42.302C49.336 40.942 47.824 40.262 47.208 38.51C46.194 35.61 47.54 35.686 47.728 33.886C47.816 33.042 47.208 32.866 46.406 33.21C44.534 33.996 43.9 33.694 43.522 32.284C43.144 30.878 43.522 30.486 43.522 30.486C42.246 30.626 42.198 29.072 42.86 28.68C43.32 28.416 43.71 27.606 44.096 26.976ZM38.748 35.594C39.928 35.054 41.018 34.86 40.874 33.932C40.734 33.014 40.402 32.33 38.558 32.33C36.714 32.33 37.518 34.86 36.006 33.35C34.494 31.85 36.336 32.238 37.092 31.896C37.85 31.552 38.606 30.142 37.282 30.042C35.96 29.948 36.242 30.626 35.202 30.242C34.162 29.85 33.69 31.6 33.026 31.356C32.59 31.192 31.42 30.292 30.644 29.406C29.0605 30.7833 27.807 32.4989 26.976 34.426C27.202 37.04 28.584 38.412 28.584 38.412C28.584 38.412 29.294 40.114 33.55 42.206C33.55 42.206 34.35 42.254 33.406 41.284C32.462 40.31 31.42 39.094 32.602 38.464C33.782 37.826 34.116 37.88 34.4 39.05C34.682 40.218 35.63 39.53 35.722 38.412C35.818 37.298 37.566 36.132 38.748 35.592V35.594ZM37.848 41.474C39.884 41.474 39.694 42.108 41.302 43.524C42.908 44.932 42.058 46.342 41.252 47.414C40.45 48.482 39.74 49.694 39.362 51.89C38.982 54.078 37.99 52.518 37.662 51.984C37.33 51.446 36.81 50.962 36.954 48.724C37.094 46.488 35.58 47.804 35.062 44.884C34.542 41.968 35.818 41.476 37.85 41.476L37.848 41.474ZM47.802 43.402C48.344 43.056 49.642 43.958 49.362 44.908C49.076 45.858 48.18 45.322 47.73 44.908C47.28 44.496 47.256 43.742 47.802 43.402Z" fill="#3C9A56"/>
</svg>
