<svg width="80" height="80" viewBox="0 0 80 80" fill="none" xmlns="http://www.w3.org/2000/svg">
<rect width="80" height="80" rx="20" fill="white" fill-opacity="0.1"/>
<path d="M55.1441 29.0338C53.2805 27.0774 50.7235 26 47.9434 26C45.8653 26 43.9622 26.6359 42.2868 27.8898C41.4414 28.5228 40.6754 29.2972 40 30.2011C39.3249 29.2975 38.5586 28.5228 37.7129 27.8898C36.0378 26.6359 34.1347 26 32.0566 26C29.2765 26 26.7192 27.0774 24.8556 29.0338C23.0143 30.9672 22 33.6086 22 36.4717C22 39.4185 23.1346 42.1159 25.5706 44.961C27.7497 47.5058 30.8816 50.0893 34.5085 53.0807C35.7469 54.1024 37.1507 55.2604 38.6083 56.4938C38.9934 56.8203 39.4875 57 40 57C40.5122 57 41.0066 56.8203 41.3911 56.4944C42.8488 55.2606 44.2534 54.1021 45.4923 53.0799C49.1187 50.089 52.2506 47.5058 54.4297 44.9607C56.8657 42.1159 58 39.4185 58 36.4714C58 33.6086 56.9857 30.9672 55.1441 29.0338Z" fill="#EA2E93"/>
</svg>
