<svg width="80" height="80" viewBox="0 0 80 80" fill="none" xmlns="http://www.w3.org/2000/svg">
<rect width="80" height="80" rx="20" fill="white" fill-opacity="0.1"/>
<path d="M25.3553 50.183C25.562 49.6026 25.7459 49.0861 25.9297 48.5696C26.2571 47.6504 26.5814 46.7303 26.9151 45.8142C26.9711 45.661 26.9498 45.5836 26.8062 45.4952C23.4831 43.4513 21.3813 40.5175 20.6049 36.6991C19.7947 32.7094 20.6712 29.0553 23.1809 25.8584C25.6354 22.7326 28.9057 21.0426 32.871 20.7788C38.0301 20.4353 42.999 23.2673 45.3927 27.8699C46.7363 30.4531 47.2058 33.1895 46.7797 36.0713C46.532 37.7479 45.9671 39.3179 45.1182 40.7868C45.0337 40.9329 44.9501 40.9826 44.7813 40.9463C42.9035 40.5356 41.5173 39.4892 40.6668 37.7566C40.6179 37.6571 40.6155 37.4944 40.6621 37.3933C42.8223 32.7007 40.0364 27.3352 34.9507 26.4041C31.3049 25.7368 27.5344 27.9409 26.3179 31.4497C24.7999 35.8296 27.2536 40.4361 31.727 41.6168C31.8304 41.6444 31.9535 41.7352 31.9976 41.8292C32.9539 43.8525 34.2856 45.5844 35.9969 47.0249C36.0277 47.051 36.0561 47.0802 36.1366 47.1568C35.7145 47.2176 35.3452 47.2831 34.9728 47.3226C33.8643 47.4395 32.7582 47.4127 31.6552 47.2476C31.5921 47.2381 31.4722 47.2958 31.4532 47.3495C30.9049 48.8713 30.366 50.3963 29.8264 51.9213C29.8217 51.9347 29.8303 51.9521 29.839 52.0081C30.1972 51.8383 30.5459 51.6741 30.8939 51.5074C31.3988 51.2658 31.9258 51.1852 32.475 51.3076C33.5251 51.5422 34.2399 52.3659 34.3614 53.4739C34.4639 54.4066 33.8959 55.3803 32.972 55.8249C31.7254 56.4243 30.4726 57.0127 29.2228 57.6058C28.4244 57.9848 27.6283 58.3679 26.8283 58.7422C25.5328 59.3487 24.1663 58.8575 23.5494 57.5608C22.5379 55.4372 21.528 53.3128 20.5253 51.186C19.8033 49.6547 20.5892 48.0302 22.2042 47.6954C23.2046 47.4877 24.2847 48.0129 24.762 48.9487C24.9585 49.3325 25.1376 49.7274 25.3553 50.183Z" fill="#345CC4"/>
<path d="M51.7766 55.0146C51.2709 55.2326 50.7865 55.4497 50.2957 55.6519C49.7577 55.8746 49.2298 56.1487 48.6705 56.2861C47.5059 56.572 46.3075 55.858 45.9327 54.7287C45.5469 53.567 46.0645 52.3098 47.1635 51.7996C48.0022 51.4102 48.8574 51.0541 49.7048 50.6837C49.7498 50.6639 49.7932 50.6403 49.8571 50.6095C49.8318 50.536 49.8137 50.4665 49.7853 50.401C49.521 49.7881 49.2456 49.18 48.9955 48.5617C48.9056 48.339 48.8133 48.2718 48.5584 48.324C44.9323 49.06 41.5524 48.4172 38.4794 46.3662C35.4355 44.335 33.5452 41.4817 32.824 37.8931C32.125 34.4128 32.7799 31.163 34.6426 28.1478C34.7633 27.9527 34.8746 27.9077 35.0829 27.9835C36.791 28.6027 38.1306 29.6759 39.1011 31.2143C39.1894 31.3541 39.1303 31.4434 39.0687 31.5531C38.3847 32.7575 38.0699 34.0598 38.0865 35.4371C38.1322 39.2847 41.0837 42.5684 44.8889 43.0209C49.2259 43.5366 53.0563 40.5277 53.5818 36.1818C54.0204 32.5569 51.6867 28.5458 47.5706 27.719C47.4696 27.6984 47.3395 27.6045 47.3024 27.5129C46.4456 25.3995 45.1414 23.6471 43.2179 22.3875C43.1911 22.3701 43.1698 22.3448 43.0956 22.2777C43.5193 22.2043 43.8948 22.1111 44.2751 22.0763C49.3127 21.6214 53.4256 23.3589 56.5286 27.3628C58.0442 29.319 58.9191 31.5721 59.0998 34.0456C59.4706 39.1338 57.5676 43.1938 53.4611 46.2146C53.3009 46.3323 53.2741 46.4207 53.3538 46.5992C53.6654 47.2894 53.9613 47.9875 54.2729 48.7046C54.7258 48.5096 55.1605 48.3224 55.5944 48.1352C56.0386 47.9441 56.4797 47.7459 56.9262 47.5627C58.1704 47.0533 59.5219 47.6006 60.0568 48.8254C60.5736 50.0093 60.0482 51.385 58.8458 51.9394C58.0363 52.3121 57.211 52.6533 56.3937 53.0087C56.3266 53.0379 56.2619 53.0742 56.1783 53.1161C56.4607 53.7692 56.7329 54.4136 57.0177 55.0517C57.2489 55.5698 57.4114 56.0918 57.3144 56.673C57.1384 57.7305 56.3353 58.5289 55.267 58.6837C54.2532 58.8306 53.2291 58.2754 52.7897 57.3206C52.4898 56.6691 52.2153 56.0065 51.9281 55.3487C51.8831 55.2452 51.8342 55.141 51.7766 55.0146Z" fill="#D531C4"/>
</svg>
