<svg width="80" height="80" viewBox="0 0 80 80" fill="none" xmlns="http://www.w3.org/2000/svg">
<rect width="80" height="80" rx="20" fill="white" fill-opacity="0.1"/>
<path d="M52.14 36H50V30C50 30 50 20 40 20C30 20 30 30 30 30V36H27.86C26.8363 36 25.8545 36.4067 25.1306 37.1306C24.4067 37.8545 24 38.8363 24 39.86V56.16C24.0053 57.1803 24.4143 58.1569 25.1376 58.8765C25.8609 59.5961 26.8397 60 27.86 60H52.14C53.1637 60 54.1455 59.5933 54.8694 58.8694C55.5933 58.1455 56 57.1637 56 56.14V39.86C56 38.8363 55.5933 37.8545 54.8694 37.1306C54.1455 36.4067 53.1637 36 52.14 36ZM34 31C34 28 34 24 40 24C46 24 46 28 46 31V36H34V31ZM40 52C39.2089 52 38.4355 51.7654 37.7777 51.3259C37.1199 50.8864 36.6072 50.2616 36.3045 49.5307C36.0017 48.7998 35.9225 47.9956 36.0769 47.2196C36.2312 46.4437 36.6122 45.731 37.1716 45.1716C37.731 44.6122 38.4437 44.2312 39.2196 44.0769C39.9956 43.9225 40.7998 44.0017 41.5307 44.3045C42.2616 44.6072 42.8864 45.1199 43.3259 45.7777C43.7654 46.4355 44 47.2089 44 48C44 49.0609 43.5786 50.0783 42.8284 50.8284C42.0783 51.5786 41.0609 52 40 52Z" fill="#FFC369"/>
</svg>
